<svg width="500" height="500" viewBox="0 0 500 500" fill="none" xmlns="http://www.w3.org/2000/svg">
<rect x="33.5" y="33.5" width="433" height="433" rx="100" fill="#686DE0"/>
<path d="M375.494 305.203V193.653C375.489 188.763 374.198 183.96 371.75 179.726C369.303 175.492 365.785 171.976 361.55 169.531L263.944 113.756C259.704 111.308 254.895 110.019 250 110.019C245.105 110.019 240.296 111.308 236.056 113.756L138.45 169.531C134.215 171.976 130.697 175.492 128.25 179.726C125.802 183.96 124.511 188.763 124.506 193.653V305.203C124.511 310.093 125.802 314.897 128.25 319.131C130.697 323.365 134.215 326.88 138.45 329.326L236.056 385.101C240.296 387.548 245.105 388.837 250 388.837C254.895 388.837 259.704 387.548 263.944 385.101L361.55 329.326C365.785 326.88 369.303 323.365 371.75 319.131C374.198 314.897 375.489 310.093 375.494 305.203Z" stroke="white" stroke-width="23.3301" stroke-linecap="round" stroke-linejoin="round"/>
<path d="M128.271 179.151L250 249.567L371.729 179.151" stroke="white" stroke-width="23.3301" stroke-linecap="round" stroke-linejoin="round"/>
<path d="M250 389.981V249.428" stroke="white" stroke-width="23.3301" stroke-linecap="round" stroke-linejoin="round"/>
</svg>
